<?xml version="1.0" encoding="UTF-8" standalone="no"?>
<!DOCTYPE svg PUBLIC "-//W3C//DTD SVG 1.1//EN" "http://www.w3.org/Graphics/SVG/1.1/DTD/svg11.dtd">
<svg width="100%" height="100%" viewBox="0 0 1823 677" version="1.1" xmlns="http://www.w3.org/2000/svg" xmlns:xlink="http://www.w3.org/1999/xlink" xml:space="preserve" xmlns:serif="http://www.serif.com/" style="fill-rule:evenodd;clip-rule:evenodd;stroke-linejoin:round;stroke-miterlimit:2;">
    <g id="Página-1" serif:id="Página 1" transform="matrix(3.644477,0,0,1.352268,0,0)">
        <rect x="0" y="0" width="500" height="500" style="fill:none;"/>
        <g id="Camada-1" serif:id="Camada 1" transform="matrix(1.143282,0,0,3.081243,-30.703384,-519.057029)">
            <g transform="matrix(1.27415,0,0,1.27415,-66.626182,-68.537279)">
                <g transform="matrix(-1,0,0,1,188.649,0.001)">
                    <rect x="83.92" y="194.461" width="20.809" height="111.077" style="fill:rgb(29,29,27);"/>
                </g>
                <g transform="matrix(1,0,0,1,157.5605,197.4615)">
                    <path d="M-3,14.741L-41.642,14.741L-41.642,-3L56.45,-3L56.45,14.741L17.81,14.741L17.81,108.077L-3,108.077L-3,14.741Z" style="fill:rgb(29,29,27);"/>
                </g>
                <g transform="matrix(1,0,0,1,276.7152,291.9864)">
                    <path d="M0,-80.973C-6.665,-80.973 -12.359,-79.944 -17.066,-77.821C-21.679,-75.737 -25.471,-72.944 -28.425,-69.415C-31.397,-65.863 -33.559,-61.786 -34.913,-57.19C-36.309,-52.457 -37.004,-47.512 -37.004,-42.358C-37.004,-36.825 -36.259,-31.621 -34.754,-26.746L-34.753,-26.744C-33.294,-22.005 -31.057,-17.877 -28.03,-14.371L-28.029,-14.369C-25.02,-10.881 -21.172,-8.132 -16.504,-6.093C-11.735,-4.012 -6.061,-3 0.51,-3C8.46,-3 15.146,-4.388 20.551,-7.258L20.553,-7.258C25.565,-9.916 28.871,-13.423 30.346,-17.885C30.752,-19.113 31.9,-19.943 33.194,-19.943L49.365,-19.943C50.313,-19.943 51.206,-19.495 51.772,-18.734C52.338,-17.974 52.511,-16.99 52.239,-16.082C49.417,-6.666 43.5,0.87 34.433,6.488L34.433,6.488C25.623,11.944 14.213,14.741 0.17,14.741C-9.552,14.741 -18.024,13.322 -25.253,10.526C-32.611,7.683 -38.724,3.721 -43.607,-1.334C-48.503,-6.399 -52.166,-12.413 -54.583,-19.378C-56.959,-26.216 -58.153,-33.726 -58.153,-41.912C-58.153,-49.997 -56.96,-57.458 -54.583,-64.299C-52.167,-71.263 -48.477,-77.3 -43.52,-82.418C-38.583,-87.517 -32.448,-91.525 -25.101,-94.418C-17.87,-97.266 -9.335,-98.714 0.51,-98.714C7.372,-98.714 13.558,-97.981 19.061,-96.536L19.063,-96.535C24.671,-95.059 29.552,-92.97 33.714,-90.284C37.966,-87.54 41.439,-84.252 44.15,-80.434L44.151,-80.433C46.853,-76.624 48.821,-72.414 50.051,-67.803C50.291,-66.903 50.099,-65.941 49.531,-65.202C48.963,-64.463 48.084,-64.03 47.152,-64.03L32.172,-64.03C30.878,-64.03 29.73,-64.86 29.324,-66.089C27.848,-70.553 24.623,-74.071 19.754,-76.734C14.52,-79.593 7.928,-80.973 0,-80.973Z" style="fill:rgb(29,29,27);"/>
                </g>
                <g transform="matrix(1,0,0,1,0,3.824)">
                    <path d="M372.007,218.176L372.007,238.953L350.151,238.953L350.151,257.223L372.007,257.223L372.007,278L391.225,278L391.225,257.223L413.08,257.223L413.08,238.953L391.225,238.953L391.225,218.176L372.007,218.176Z" style="fill:url(#_Linear1);fill-rule:nonzero;"/>
                </g>
            </g>
        </g>
    </g>
    <defs>
        <linearGradient id="_Linear1" x1="0" y1="0" x2="1" y2="0" gradientUnits="userSpaceOnUse" gradientTransform="matrix(62.929,-59.824,59.824,62.929,350.151,278)"><stop offset="0" style="stop-color:rgb(94,133,195);stop-opacity:1"/><stop offset="1" style="stop-color:rgb(125,66,147);stop-opacity:1"/></linearGradient>
    </defs>
</svg>
